<?xml version="1.0" standalone="no"?><svg xmlns="http://www.w3.org/2000/svg" viewBox="0 0 1440 320"><path fill="#ff5858" fill-opacity="1" d="M0,160L10,186.7C20,213,40,267,60,282.7C80,299,100,277,120,229.3C140,181,160,107,180,96C200,85,220,139,240,144C260,149,280,107,300,112C320,117,340,171,360,197.3C380,224,400,224,420,234.7C440,245,460,267,480,245.3C500,224,520,160,540,149.3C560,139,580,181,600,213.3C620,245,640,267,660,229.3C680,192,700,96,720,64C740,32,760,64,780,74.7C800,85,820,75,840,101.3C860,128,880,192,900,186.7C920,181,940,107,960,106.7C980,107,1000,181,1020,197.3C1040,213,1060,171,1080,138.7C1100,107,1120,85,1140,101.3C1160,117,1180,171,1200,165.3C1220,160,1240,96,1260,101.3C1280,107,1300,181,1320,224C1340,267,1360,277,1380,266.7C1400,256,1420,224,1430,208L1440,192L1440,320L1430,320C1420,320,1400,320,1380,320C1360,320,1340,320,1320,320C1300,320,1280,320,1260,320C1240,320,1220,320,1200,320C1180,320,1160,320,1140,320C1120,320,1100,320,1080,320C1060,320,1040,320,1020,320C1000,320,980,320,960,320C940,320,920,320,900,320C880,320,860,320,840,320C820,320,800,320,780,320C760,320,740,320,720,320C700,320,680,320,660,320C640,320,620,320,600,320C580,320,560,320,540,320C520,320,500,320,480,320C460,320,440,320,420,320C400,320,380,320,360,320C340,320,320,320,300,320C280,320,260,320,240,320C220,320,200,320,180,320C160,320,140,320,120,320C100,320,80,320,60,320C40,320,20,320,10,320L0,320Z"></path></svg>